solid OpenSCAD_Model
  facet normal -1 0 0
    outer loop
      vertex -75 29.5 -0.5
      vertex -75 29.5 19.5
      vertex -75 30.5 -0.5
    endloop
  endfacet
  facet normal -1 0 0
    outer loop
      vertex -75 30.5 -0.5
      vertex -75 29.5 19.5
      vertex -75 30.5 19.5
    endloop
  endfacet
  facet normal 0 -1 0
    outer loop
      vertex -71.618 29.5 11.8244
      vertex -75 29.5 -0.5
      vertex -60 29.5 -0.5
    endloop
  endfacet
  facet normal 0 -1 0
    outer loop
      vertex -69.382 29.5 14.9021
      vertex -68.382 29.5 14.1756
      vertex 60 29.5 0.5
    endloop
  endfacet
  facet normal 0 -1 0
    outer loop
      vertex -68.382 29.5 11.8244
      vertex -69.382 29.5 11.0979
      vertex -60 29.5 -0.5
    endloop
  endfacet
  facet normal 0 -1 0
    outer loop
      vertex 75 29.5 -0.5
      vertex -75 29.5 19.5
      vertex 60 29.5 0.5
    endloop
  endfacet
  facet normal 0 -1 0
    outer loop
      vertex 75 29.5 -0.5
      vertex 60 29.5 0.5
      vertex 60 29.5 -0.5
    endloop
  endfacet
  facet normal 0 -1 0
    outer loop
      vertex 68.382 29.5 11.8244
      vertex -75 29.5 19.5
      vertex 75 29.5 -0.5
    endloop
  endfacet
  facet normal 0 -1 0
    outer loop
      vertex -70.618 29.5 11.0979
      vertex -71.618 29.5 11.8244
      vertex -60 29.5 -0.5
    endloop
  endfacet
  facet normal 0 -1 0
    outer loop
      vertex -75 29.5 19.5
      vertex -75 29.5 -0.5
      vertex -71.618 29.5 11.8244
    endloop
  endfacet
  facet normal 0 -1 0
    outer loop
      vertex 69.382 29.5 14.9021
      vertex 70.618 29.5 14.9021
      vertex 75 29.5 19.5
    endloop
  endfacet
  facet normal 0 -1 0
    outer loop
      vertex -75 29.5 19.5
      vertex -71.618 29.5 11.8244
      vertex -72 29.5 13
    endloop
  endfacet
  facet normal 0 -1 0
    outer loop
      vertex -75 29.5 19.5
      vertex -72 29.5 13
      vertex -71.618 29.5 14.1756
    endloop
  endfacet
  facet normal 0 -1 0
    outer loop
      vertex -69.382 29.5 14.9021
      vertex -75 29.5 19.5
      vertex -70.618 29.5 14.9021
    endloop
  endfacet
  facet normal 0 -1 0
    outer loop
      vertex -68 29.5 13
      vertex -68.382 29.5 11.8244
      vertex -60 29.5 0.5
    endloop
  endfacet
  facet normal 0 -1 0
    outer loop
      vertex 60 29.5 0.5
      vertex -75 29.5 19.5
      vertex -69.382 29.5 14.9021
    endloop
  endfacet
  facet normal 0 -1 0
    outer loop
      vertex 60 29.5 0.5
      vertex -68.382 29.5 14.1756
      vertex -60 29.5 0.5
    endloop
  endfacet
  facet normal 0 -1 0
    outer loop
      vertex -68.382 29.5 14.1756
      vertex -68 29.5 13
      vertex -60 29.5 0.5
    endloop
  endfacet
  facet normal 0 -1 0
    outer loop
      vertex 69.382 29.5 11.0979
      vertex 68.382 29.5 11.8244
      vertex 75 29.5 -0.5
    endloop
  endfacet
  facet normal 0 -1 0
    outer loop
      vertex 68 29.5 13
      vertex -75 29.5 19.5
      vertex 68.382 29.5 11.8244
    endloop
  endfacet
  facet normal 0 -1 0
    outer loop
      vertex 68.382 29.5 14.1756
      vertex -75 29.5 19.5
      vertex 68 29.5 13
    endloop
  endfacet
  facet normal 0 -1 0
    outer loop
      vertex 75 29.5 19.5
      vertex -75 29.5 19.5
      vertex 68.382 29.5 14.1756
    endloop
  endfacet
  facet normal 0 -1 0
    outer loop
      vertex 70.618 29.5 14.9021
      vertex 71.618 29.5 14.1756
      vertex 75 29.5 19.5
    endloop
  endfacet
  facet normal 0 -1 0
    outer loop
      vertex 75 29.5 19.5
      vertex 68.382 29.5 14.1756
      vertex 69.382 29.5 14.9021
    endloop
  endfacet
  facet normal 0 -1 0
    outer loop
      vertex 72 29.5 13
      vertex 71.618 29.5 11.8244
      vertex 75 29.5 -0.5
    endloop
  endfacet
  facet normal 0 -1 0
    outer loop
      vertex 75 29.5 19.5
      vertex 72 29.5 13
      vertex 75 29.5 -0.5
    endloop
  endfacet
  facet normal 0 -1 0
    outer loop
      vertex 75 29.5 19.5
      vertex 71.618 29.5 14.1756
      vertex 72 29.5 13
    endloop
  endfacet
  facet normal 0 -1 0
    outer loop
      vertex 71.618 29.5 11.8244
      vertex 70.618 29.5 11.0979
      vertex 75 29.5 -0.5
    endloop
  endfacet
  facet normal 0 -1 0
    outer loop
      vertex 70.618 29.5 11.0979
      vertex 69.382 29.5 11.0979
      vertex 75 29.5 -0.5
    endloop
  endfacet
  facet normal 0 -1 0
    outer loop
      vertex -68.382 29.5 11.8244
      vertex -60 29.5 -0.5
      vertex -60 29.5 0.5
    endloop
  endfacet
  facet normal 0 -1 0
    outer loop
      vertex -69.382 29.5 11.0979
      vertex -70.618 29.5 11.0979
      vertex -60 29.5 -0.5
    endloop
  endfacet
  facet normal 0 -1 0
    outer loop
      vertex -71.618 29.5 14.1756
      vertex -70.618 29.5 14.9021
      vertex -75 29.5 19.5
    endloop
  endfacet
  facet normal 0 0 -1
    outer loop
      vertex -75 29.5 -0.5
      vertex -75 30.5 -0.5
      vertex -60 29.5 -0.5
    endloop
  endfacet
  facet normal 0 0 -1
    outer loop
      vertex -60 29.5 -0.5
      vertex -75 30.5 -0.5
      vertex 75 30.5 -0.5
    endloop
  endfacet
  facet normal 0 0 -1
    outer loop
      vertex 60 29.5 -0.5
      vertex 75 30.5 -0.5
      vertex 75 29.5 -0.5
    endloop
  endfacet
  facet normal 0 0 -1
    outer loop
      vertex -60 29.5 -0.5
      vertex 75 30.5 -0.5
      vertex 60 29.5 -0.5
    endloop
  endfacet
  facet normal 0 0 -1
    outer loop
      vertex -40 0.5 -0.5
      vertex -48.5 21 -0.5
      vertex -48.882 22.1756 -0.5
    endloop
  endfacet
  facet normal 0 0 -1
    outer loop
      vertex -52.118 -10.1756 -0.5
      vertex -60 -30 -0.5
      vertex -52.5 -9 -0.5
    endloop
  endfacet
  facet normal 0 0 -1
    outer loop
      vertex -51.118 -10.9021 -0.5
      vertex -60 -30 -0.5
      vertex -52.118 -10.1756 -0.5
    endloop
  endfacet
  facet normal 0 0 -1
    outer loop
      vertex -40 -25 -0.5
      vertex -60 -30 -0.5
      vertex -51.118 -10.9021 -0.5
    endloop
  endfacet
  facet normal 0 0 -1
    outer loop
      vertex -40 -25 -0.5
      vertex -48.882 -10.1756 -0.5
      vertex -48.5 -9 -0.5
    endloop
  endfacet
  facet normal 0 0 -1
    outer loop
      vertex -40 -0.5 -0.5
      vertex -40 0.5 -0.5
      vertex 40 -0.5 -0.5
    endloop
  endfacet
  facet normal 0 0 -1
    outer loop
      vertex 40 0.5 -0.5
      vertex 40 -0.5 -0.5
      vertex -40 0.5 -0.5
    endloop
  endfacet
  facet normal 0 0 -1
    outer loop
      vertex -49.882 22.9021 -0.5
      vertex -60 29.5 -0.5
      vertex -40 25 -0.5
    endloop
  endfacet
  facet normal 0 0 -1
    outer loop
      vertex -51.118 22.9021 -0.5
      vertex -60 29.5 -0.5
      vertex -49.882 22.9021 -0.5
    endloop
  endfacet
  facet normal 0 0 -1
    outer loop
      vertex -40 0.5 -0.5
      vertex -48.882 22.1756 -0.5
      vertex -40 25 -0.5
    endloop
  endfacet
  facet normal 0 0 -1
    outer loop
      vertex -40 -25 -0.5
      vertex -48.5 -9 -0.5
      vertex -48.882 -7.82443 -0.5
    endloop
  endfacet
  facet normal 0 0 -1
    outer loop
      vertex -40 -25 -0.5
      vertex -48.882 -7.82443 -0.5
      vertex -40 -0.5 -0.5
    endloop
  endfacet
  facet normal 0 0 -1
    outer loop
      vertex 40 -25 -0.5
      vertex 60 -30 -0.5
      vertex -40 -25 -0.5
    endloop
  endfacet
  facet normal 0 0 -1
    outer loop
      vertex -40 0.5 -0.5
      vertex -48.882 19.8244 -0.5
      vertex -48.5 21 -0.5
    endloop
  endfacet
  facet normal 0 0 -1
    outer loop
      vertex -52.118 22.1756 -0.5
      vertex -60 29.5 -0.5
      vertex -51.118 22.9021 -0.5
    endloop
  endfacet
  facet normal 0 0 -1
    outer loop
      vertex -40 0.5 -0.5
      vertex -49.882 19.0979 -0.5
      vertex -48.882 19.8244 -0.5
    endloop
  endfacet
  facet normal 0 0 -1
    outer loop
      vertex -40 0.5 -0.5
      vertex -51.118 19.0979 -0.5
      vertex -49.882 19.0979 -0.5
    endloop
  endfacet
  facet normal 0 0 -1
    outer loop
      vertex -60 29.5 -0.5
      vertex -52.118 22.1756 -0.5
      vertex -52.5 21 -0.5
    endloop
  endfacet
  facet normal 0 0 -1
    outer loop
      vertex 60 -30 -0.5
      vertex -60 -30 -0.5
      vertex -40 -25 -0.5
    endloop
  endfacet
  facet normal 0 0 -1
    outer loop
      vertex 40 -0.5 -0.5
      vertex 60 -30 -0.5
      vertex 40 -25 -0.5
    endloop
  endfacet
  facet normal 0 0 -1
    outer loop
      vertex -48.882 22.1756 -0.5
      vertex -49.882 22.9021 -0.5
      vertex -40 25 -0.5
    endloop
  endfacet
  facet normal 0 0 -1
    outer loop
      vertex 48.882 -10.1756 -0.5
      vertex 60 -30 -0.5
      vertex 40 -0.5 -0.5
    endloop
  endfacet
  facet normal 0 0 -1
    outer loop
      vertex 49.882 -10.9021 -0.5
      vertex 60 -30 -0.5
      vertex 48.882 -10.1756 -0.5
    endloop
  endfacet
  facet normal 0 0 -1
    outer loop
      vertex 60 29.5 -0.5
      vertex -40 25 -0.5
      vertex -60 29.5 -0.5
    endloop
  endfacet
  facet normal 0 0 -1
    outer loop
      vertex -40 -25 -0.5
      vertex -51.118 -10.9021 -0.5
      vertex -49.882 -10.9021 -0.5
    endloop
  endfacet
  facet normal 0 0 -1
    outer loop
      vertex 60 29.5 -0.5
      vertex 40 -0.5 -0.5
      vertex 40 0.5 -0.5
    endloop
  endfacet
  facet normal 0 0 -1
    outer loop
      vertex 48.5 21 -0.5
      vertex 40 0.5 -0.5
      vertex 40 25 -0.5
    endloop
  endfacet
  facet normal 0 0 -1
    outer loop
      vertex 60 29.5 -0.5
      vertex 40 25 -0.5
      vertex -40 25 -0.5
    endloop
  endfacet
  facet normal 0 0 -1
    outer loop
      vertex 52.118 -7.82443 -0.5
      vertex 60 29.5 -0.5
      vertex 52.5 -9 -0.5
    endloop
  endfacet
  facet normal 0 0 -1
    outer loop
      vertex 60 29.5 -0.5
      vertex 48.5 -9 -0.5
      vertex 40 -0.5 -0.5
    endloop
  endfacet
  facet normal 0 0 -1
    outer loop
      vertex 48.5 -9 -0.5
      vertex 48.882 -10.1756 -0.5
      vertex 40 -0.5 -0.5
    endloop
  endfacet
  facet normal 0 0 -1
    outer loop
      vertex 51.118 -10.9021 -0.5
      vertex 60 -30 -0.5
      vertex 49.882 -10.9021 -0.5
    endloop
  endfacet
  facet normal 0 0 -1
    outer loop
      vertex 52.118 -10.1756 -0.5
      vertex 60 -30 -0.5
      vertex 51.118 -10.9021 -0.5
    endloop
  endfacet
  facet normal 0 0 -1
    outer loop
      vertex 52.5 -9 -0.5
      vertex 60 -30 -0.5
      vertex 52.118 -10.1756 -0.5
    endloop
  endfacet
  facet normal 0 0 -1
    outer loop
      vertex 60 29.5 -0.5
      vertex 60 -30 -0.5
      vertex 52.5 -9 -0.5
    endloop
  endfacet
  facet normal 0 0 -1
    outer loop
      vertex 51.118 -7.09789 -0.5
      vertex 60 29.5 -0.5
      vertex 52.118 -7.82443 -0.5
    endloop
  endfacet
  facet normal 0 0 -1
    outer loop
      vertex 49.882 -7.09789 -0.5
      vertex 60 29.5 -0.5
      vertex 51.118 -7.09789 -0.5
    endloop
  endfacet
  facet normal 0 0 -1
    outer loop
      vertex 52.5 21 -0.5
      vertex 60 29.5 -0.5
      vertex 52.118 19.8244 -0.5
    endloop
  endfacet
  facet normal 0 0 -1
    outer loop
      vertex 60 29.5 -0.5
      vertex 49.882 -7.09789 -0.5
      vertex 48.882 -7.82443 -0.5
    endloop
  endfacet
  facet normal 0 0 -1
    outer loop
      vertex 60 29.5 -0.5
      vertex 48.882 -7.82443 -0.5
      vertex 48.5 -9 -0.5
    endloop
  endfacet
  facet normal 0 0 -1
    outer loop
      vertex 48.882 19.8244 -0.5
      vertex 40 0.5 -0.5
      vertex 48.5 21 -0.5
    endloop
  endfacet
  facet normal 0 0 -1
    outer loop
      vertex 48.882 22.1756 -0.5
      vertex 48.5 21 -0.5
      vertex 40 25 -0.5
    endloop
  endfacet
  facet normal 0 0 -1
    outer loop
      vertex 49.882 19.0979 -0.5
      vertex 40 0.5 -0.5
      vertex 48.882 19.8244 -0.5
    endloop
  endfacet
  facet normal 0 0 -1
    outer loop
      vertex 51.118 19.0979 -0.5
      vertex 40 0.5 -0.5
      vertex 49.882 19.0979 -0.5
    endloop
  endfacet
  facet normal 0 0 -1
    outer loop
      vertex 52.118 19.8244 -0.5
      vertex 40 0.5 -0.5
      vertex 51.118 19.0979 -0.5
    endloop
  endfacet
  facet normal 0 0 -1
    outer loop
      vertex 60 29.5 -0.5
      vertex 40 0.5 -0.5
      vertex 52.118 19.8244 -0.5
    endloop
  endfacet
  facet normal 0 0 -1
    outer loop
      vertex 52.118 22.1756 -0.5
      vertex 60 29.5 -0.5
      vertex 52.5 21 -0.5
    endloop
  endfacet
  facet normal 0 0 -1
    outer loop
      vertex 51.118 22.9021 -0.5
      vertex 60 29.5 -0.5
      vertex 52.118 22.1756 -0.5
    endloop
  endfacet
  facet normal 0 0 -1
    outer loop
      vertex 49.882 22.9021 -0.5
      vertex 60 29.5 -0.5
      vertex 51.118 22.9021 -0.5
    endloop
  endfacet
  facet normal 0 0 -1
    outer loop
      vertex 60 29.5 -0.5
      vertex 49.882 22.9021 -0.5
      vertex 40 25 -0.5
    endloop
  endfacet
  facet normal 0 0 -1
    outer loop
      vertex 49.882 22.9021 -0.5
      vertex 48.882 22.1756 -0.5
      vertex 40 25 -0.5
    endloop
  endfacet
  facet normal 0 0 -1
    outer loop
      vertex -60 29.5 -0.5
      vertex -52.5 21 -0.5
      vertex -52.118 19.8244 -0.5
    endloop
  endfacet
  facet normal 0 0 -1
    outer loop
      vertex -40 -25 -0.5
      vertex -49.882 -10.9021 -0.5
      vertex -48.882 -10.1756 -0.5
    endloop
  endfacet
  facet normal 0 0 -1
    outer loop
      vertex -52.118 19.8244 -0.5
      vertex -51.118 19.0979 -0.5
      vertex -40 0.5 -0.5
    endloop
  endfacet
  facet normal 0 0 -1
    outer loop
      vertex -60 29.5 -0.5
      vertex -52.118 19.8244 -0.5
      vertex -40 0.5 -0.5
    endloop
  endfacet
  facet normal 0 0 -1
    outer loop
      vertex -60 29.5 -0.5
      vertex -40 0.5 -0.5
      vertex -40 -0.5 -0.5
    endloop
  endfacet
  facet normal 0 0 -1
    outer loop
      vertex -60 29.5 -0.5
      vertex -40 -0.5 -0.5
      vertex -48.882 -7.82443 -0.5
    endloop
  endfacet
  facet normal 0 0 -1
    outer loop
      vertex -60 29.5 -0.5
      vertex -48.882 -7.82443 -0.5
      vertex -49.882 -7.09789 -0.5
    endloop
  endfacet
  facet normal 0 0 -1
    outer loop
      vertex -60 29.5 -0.5
      vertex -49.882 -7.09789 -0.5
      vertex -51.118 -7.09789 -0.5
    endloop
  endfacet
  facet normal 0 0 -1
    outer loop
      vertex -60 29.5 -0.5
      vertex -51.118 -7.09789 -0.5
      vertex -52.118 -7.82443 -0.5
    endloop
  endfacet
  facet normal 0 0 -1
    outer loop
      vertex -60 29.5 -0.5
      vertex -52.118 -7.82443 -0.5
      vertex -52.5 -9 -0.5
    endloop
  endfacet
  facet normal 0 0 -1
    outer loop
      vertex -60 29.5 -0.5
      vertex -52.5 -9 -0.5
      vertex -60 -30 -0.5
    endloop
  endfacet
  facet normal 0 1 0
    outer loop
      vertex -68.382 30.5 14.1756
      vertex -75 30.5 19.5
      vertex 75 30.5 -0.5
    endloop
  endfacet
  facet normal 0 1 0
    outer loop
      vertex 69.382 30.5 14.9021
      vertex -75 30.5 19.5
      vertex 75 30.5 19.5
    endloop
  endfacet
  facet normal 0 1 0
    outer loop
      vertex -75 30.5 -0.5
      vertex -75 30.5 19.5
      vertex -72 30.5 13
    endloop
  endfacet
  facet normal 0 1 0
    outer loop
      vertex -75 30.5 -0.5
      vertex -72 30.5 13
      vertex -71.618 30.5 11.8244
    endloop
  endfacet
  facet normal 0 1 0
    outer loop
      vertex -75 30.5 -0.5
      vertex -71.618 30.5 11.8244
      vertex -70.618 30.5 11.0979
    endloop
  endfacet
  facet normal 0 1 0
    outer loop
      vertex -75 30.5 -0.5
      vertex -70.618 30.5 11.0979
      vertex 75 30.5 -0.5
    endloop
  endfacet
  facet normal 0 1 0
    outer loop
      vertex -70.618 30.5 11.0979
      vertex -69.382 30.5 11.0979
      vertex 75 30.5 -0.5
    endloop
  endfacet
  facet normal 0 1 0
    outer loop
      vertex -68 30.5 13
      vertex 75 30.5 -0.5
      vertex -68.382 30.5 11.8244
    endloop
  endfacet
  facet normal 0 1 0
    outer loop
      vertex 69.382 30.5 11.0979
      vertex 75 30.5 -0.5
      vertex 68.382 30.5 11.8244
    endloop
  endfacet
  facet normal 0 1 0
    outer loop
      vertex -70.618 30.5 14.9021
      vertex -75 30.5 19.5
      vertex -69.382 30.5 14.9021
    endloop
  endfacet
  facet normal 0 1 0
    outer loop
      vertex -69.382 30.5 14.9021
      vertex -75 30.5 19.5
      vertex -68.382 30.5 14.1756
    endloop
  endfacet
  facet normal 0 1 0
    outer loop
      vertex -68 30.5 13
      vertex -68.382 30.5 14.1756
      vertex 75 30.5 -0.5
    endloop
  endfacet
  facet normal 0 1 0
    outer loop
      vertex -71.618 30.5 14.1756
      vertex -75 30.5 19.5
      vertex -70.618 30.5 14.9021
    endloop
  endfacet
  facet normal 0 1 0
    outer loop
      vertex -72 30.5 13
      vertex -75 30.5 19.5
      vertex -71.618 30.5 14.1756
    endloop
  endfacet
  facet normal 0 1 0
    outer loop
      vertex 68.382 30.5 11.8244
      vertex -75 30.5 19.5
      vertex 68 30.5 13
    endloop
  endfacet
  facet normal 0 1 0
    outer loop
      vertex 75 30.5 -0.5
      vertex -75 30.5 19.5
      vertex 68.382 30.5 11.8244
    endloop
  endfacet
  facet normal 0 1 0
    outer loop
      vertex 71.618 30.5 14.1756
      vertex 75 30.5 19.5
      vertex 72 30.5 13
    endloop
  endfacet
  facet normal 0 1 0
    outer loop
      vertex 75 30.5 -0.5
      vertex 69.382 30.5 11.0979
      vertex 70.618 30.5 11.0979
    endloop
  endfacet
  facet normal 0 1 0
    outer loop
      vertex 75 30.5 -0.5
      vertex 70.618 30.5 11.0979
      vertex 71.618 30.5 11.8244
    endloop
  endfacet
  facet normal 0 1 0
    outer loop
      vertex 75 30.5 -0.5
      vertex 71.618 30.5 11.8244
      vertex 75 30.5 19.5
    endloop
  endfacet
  facet normal 0 1 0
    outer loop
      vertex 71.618 30.5 11.8244
      vertex 72 30.5 13
      vertex 75 30.5 19.5
    endloop
  endfacet
  facet normal 0 1 0
    outer loop
      vertex 70.618 30.5 14.9021
      vertex 75 30.5 19.5
      vertex 71.618 30.5 14.1756
    endloop
  endfacet
  facet normal 0 1 0
    outer loop
      vertex 69.382 30.5 14.9021
      vertex 75 30.5 19.5
      vertex 70.618 30.5 14.9021
    endloop
  endfacet
  facet normal 0 1 0
    outer loop
      vertex 68.382 30.5 14.1756
      vertex -75 30.5 19.5
      vertex 69.382 30.5 14.9021
    endloop
  endfacet
  facet normal 0 1 0
    outer loop
      vertex 68 30.5 13
      vertex -75 30.5 19.5
      vertex 68.382 30.5 14.1756
    endloop
  endfacet
  facet normal 0 1 0
    outer loop
      vertex -68.382 30.5 11.8244
      vertex 75 30.5 -0.5
      vertex -69.382 30.5 11.0979
    endloop
  endfacet
  facet normal 0 0 1
    outer loop
      vertex -75 30.5 19.5
      vertex -75 29.5 19.5
      vertex 75 29.5 19.5
    endloop
  endfacet
  facet normal 0 0 1
    outer loop
      vertex 75 30.5 19.5
      vertex -75 30.5 19.5
      vertex 75 29.5 19.5
    endloop
  endfacet
  facet normal 1 0 0
    outer loop
      vertex 75 29.5 19.5
      vertex 75 29.5 -0.5
      vertex 75 30.5 -0.5
    endloop
  endfacet
  facet normal 1 0 0
    outer loop
      vertex 75 30.5 19.5
      vertex 75 29.5 19.5
      vertex 75 30.5 -0.5
    endloop
  endfacet
  facet normal 1 0 0
    outer loop
      vertex 60 -30 0.5
      vertex 60 -30 -0.5
      vertex 60 29.5 -0.5
    endloop
  endfacet
  facet normal 1 0 0
    outer loop
      vertex 60 -0.5 0.5
      vertex 60 -30 0.5
      vertex 60 29.5 -0.5
    endloop
  endfacet
  facet normal 1 0 0
    outer loop
      vertex 60 0.5 0.5
      vertex 60 -0.5 0.5
      vertex 60 29.5 -0.5
    endloop
  endfacet
  facet normal 1 0 0
    outer loop
      vertex 60 29.5 0.5
      vertex 60 0.5 0.5
      vertex 60 29.5 -0.5
    endloop
  endfacet
  facet normal 1 0 0
    outer loop
      vertex 60 0.5 4.5
      vertex 60 -0.5 0.5
      vertex 60 0.5 0.5
    endloop
  endfacet
  facet normal 1 0 0
    outer loop
      vertex 60 -0.5 4.5
      vertex 60 -0.5 0.5
      vertex 60 0.5 4.5
    endloop
  endfacet
  facet normal 0 0 1
    outer loop
      vertex -60 29.5 0.5
      vertex -60 0.5 0.5
      vertex -40 0.5 0.5
    endloop
  endfacet
  facet normal 0 0 1
    outer loop
      vertex 40 25 0.5
      vertex -60 29.5 0.5
      vertex -40 25 0.5
    endloop
  endfacet
  facet normal 0 0 1
    outer loop
      vertex -52.118 19.8244 0.5
      vertex -60 29.5 0.5
      vertex -40 0.5 0.5
    endloop
  endfacet
  facet normal 0 0 1
    outer loop
      vertex 60 29.5 0.5
      vertex -60 29.5 0.5
      vertex 40 25 0.5
    endloop
  endfacet
  facet normal 0 0 1
    outer loop
      vertex 60 0.5 0.5
      vertex 40 25 0.5
      vertex 40 0.5 0.5
    endloop
  endfacet
  facet normal 0 0 1
    outer loop
      vertex 48.882 19.8244 0.5
      vertex 40 25 0.5
      vertex 60 0.5 0.5
    endloop
  endfacet
  facet normal 0 0 1
    outer loop
      vertex -51.118 19.0979 0.5
      vertex -52.118 19.8244 0.5
      vertex -40 0.5 0.5
    endloop
  endfacet
  facet normal 0 0 1
    outer loop
      vertex -52.5 21 0.5
      vertex -60 29.5 0.5
      vertex -52.118 19.8244 0.5
    endloop
  endfacet
  facet normal 0 0 1
    outer loop
      vertex -52.118 22.1756 0.5
      vertex -60 29.5 0.5
      vertex -52.5 21 0.5
    endloop
  endfacet
  facet normal 0 0 1
    outer loop
      vertex -51.118 22.9021 0.5
      vertex -60 29.5 0.5
      vertex -52.118 22.1756 0.5
    endloop
  endfacet
  facet normal 0 0 1
    outer loop
      vertex -40 25 0.5
      vertex -60 29.5 0.5
      vertex -51.118 22.9021 0.5
    endloop
  endfacet
  facet normal 0 0 1
    outer loop
      vertex -40 25 0.5
      vertex -51.118 22.9021 0.5
      vertex -49.882 22.9021 0.5
    endloop
  endfacet
  facet normal 0 0 1
    outer loop
      vertex 49.882 22.9021 0.5
      vertex 51.118 22.9021 0.5
      vertex 60 29.5 0.5
    endloop
  endfacet
  facet normal 0 0 1
    outer loop
      vertex -40 25 0.5
      vertex -48.5 21 0.5
      vertex -40 0.5 0.5
    endloop
  endfacet
  facet normal 0 0 1
    outer loop
      vertex -48.5 21 0.5
      vertex -48.882 19.8244 0.5
      vertex -40 0.5 0.5
    endloop
  endfacet
  facet normal 0 0 1
    outer loop
      vertex -48.882 19.8244 0.5
      vertex -49.882 19.0979 0.5
      vertex -40 0.5 0.5
    endloop
  endfacet
  facet normal 0 0 1
    outer loop
      vertex -49.882 19.0979 0.5
      vertex -51.118 19.0979 0.5
      vertex -40 0.5 0.5
    endloop
  endfacet
  facet normal 0 0 1
    outer loop
      vertex 49.882 19.0979 0.5
      vertex 48.882 19.8244 0.5
      vertex 60 0.5 0.5
    endloop
  endfacet
  facet normal 0 0 1
    outer loop
      vertex 48.5 21 0.5
      vertex 40 25 0.5
      vertex 48.882 19.8244 0.5
    endloop
  endfacet
  facet normal 0 0 1
    outer loop
      vertex 48.882 22.1756 0.5
      vertex 40 25 0.5
      vertex 48.5 21 0.5
    endloop
  endfacet
  facet normal 0 0 1
    outer loop
      vertex 51.118 22.9021 0.5
      vertex 52.118 22.1756 0.5
      vertex 60 29.5 0.5
    endloop
  endfacet
  facet normal 0 0 1
    outer loop
      vertex 49.882 22.9021 0.5
      vertex 40 25 0.5
      vertex 48.882 22.1756 0.5
    endloop
  endfacet
  facet normal 0 0 1
    outer loop
      vertex 60 29.5 0.5
      vertex 40 25 0.5
      vertex 49.882 22.9021 0.5
    endloop
  endfacet
  facet normal 0 0 1
    outer loop
      vertex 60 29.5 0.5
      vertex 52.118 22.1756 0.5
      vertex 60 0.5 0.5
    endloop
  endfacet
  facet normal 0 0 1
    outer loop
      vertex 52.118 22.1756 0.5
      vertex 52.5 21 0.5
      vertex 60 0.5 0.5
    endloop
  endfacet
  facet normal 0 0 1
    outer loop
      vertex 52.5 21 0.5
      vertex 52.118 19.8244 0.5
      vertex 60 0.5 0.5
    endloop
  endfacet
  facet normal 0 0 1
    outer loop
      vertex 52.118 19.8244 0.5
      vertex 51.118 19.0979 0.5
      vertex 60 0.5 0.5
    endloop
  endfacet
  facet normal 0 0 1
    outer loop
      vertex 51.118 19.0979 0.5
      vertex 49.882 19.0979 0.5
      vertex 60 0.5 0.5
    endloop
  endfacet
  facet normal 0 0 1
    outer loop
      vertex -49.882 22.9021 0.5
      vertex -48.882 22.1756 0.5
      vertex -40 25 0.5
    endloop
  endfacet
  facet normal 0 0 1
    outer loop
      vertex -48.882 22.1756 0.5
      vertex -48.5 21 0.5
      vertex -40 25 0.5
    endloop
  endfacet
  facet normal -1 0 0
    outer loop
      vertex -60 -30 -0.5
      vertex -60 -30 0.5
      vertex -60 29.5 -0.5
    endloop
  endfacet
  facet normal -1 0 0
    outer loop
      vertex -60 29.5 -0.5
      vertex -60 -30 0.5
      vertex -60 -0.5 0.5
    endloop
  endfacet
  facet normal -1 0 0
    outer loop
      vertex -60 0.5 0.5
      vertex -60 -0.5 0.5
      vertex -60 -0.5 4.5
    endloop
  endfacet
  facet normal -1 0 0
    outer loop
      vertex -60 29.5 -0.5
      vertex -60 -0.5 0.5
      vertex -60 0.5 0.5
    endloop
  endfacet
  facet normal -1 0 0
    outer loop
      vertex -60 29.5 0.5
      vertex -60 29.5 -0.5
      vertex -60 0.5 0.5
    endloop
  endfacet
  facet normal -1 0 0
    outer loop
      vertex -60 0.5 0.5
      vertex -60 -0.5 4.5
      vertex -60 0.5 4.5
    endloop
  endfacet
  facet normal 0.587785 1.79638e-16 0.809017
    outer loop
      vertex -70.618 29.5 11.0979
      vertex -70.618 30.5 11.0979
      vertex -71.618 30.5 11.8244
    endloop
  endfacet
  facet normal 0.587785 1.79638e-16 0.809017
    outer loop
      vertex -71.618 29.5 11.8244
      vertex -70.618 29.5 11.0979
      vertex -71.618 30.5 11.8244
    endloop
  endfacet
  facet normal 0.951057 6.86155e-17 0.309017
    outer loop
      vertex -71.618 29.5 11.8244
      vertex -71.618 30.5 11.8244
      vertex -72 30.5 13
    endloop
  endfacet
  facet normal 0.951057 6.86155e-17 0.309017
    outer loop
      vertex -72 29.5 13
      vertex -71.618 29.5 11.8244
      vertex -72 30.5 13
    endloop
  endfacet
  facet normal 0 2.22045e-16 1
    outer loop
      vertex -69.382 29.5 11.0979
      vertex -69.382 30.5 11.0979
      vertex -70.618 30.5 11.0979
    endloop
  endfacet
  facet normal 0 2.22045e-16 1
    outer loop
      vertex -70.618 29.5 11.0979
      vertex -69.382 29.5 11.0979
      vertex -70.618 30.5 11.0979
    endloop
  endfacet
  facet normal -0.587785 1.79638e-16 0.809017
    outer loop
      vertex -68.382 29.5 11.8244
      vertex -68.382 30.5 11.8244
      vertex -69.382 30.5 11.0979
    endloop
  endfacet
  facet normal -0.587785 1.79638e-16 0.809017
    outer loop
      vertex -69.382 29.5 11.0979
      vertex -68.382 29.5 11.8244
      vertex -69.382 30.5 11.0979
    endloop
  endfacet
  facet normal -0.951057 6.86155e-17 0.309017
    outer loop
      vertex -68 30.5 13
      vertex -68.382 30.5 11.8244
      vertex -68 29.5 13
    endloop
  endfacet
  facet normal -0.951057 6.86155e-17 0.309017
    outer loop
      vertex -68 29.5 13
      vertex -68.382 30.5 11.8244
      vertex -68.382 29.5 11.8244
    endloop
  endfacet
  facet normal -0.951057 -6.86155e-17 -0.309017
    outer loop
      vertex -68 30.5 13
      vertex -68 29.5 13
      vertex -68.382 30.5 14.1756
    endloop
  endfacet
  facet normal -0.951057 -6.86155e-17 -0.309017
    outer loop
      vertex -68.382 30.5 14.1756
      vertex -68 29.5 13
      vertex -68.382 29.5 14.1756
    endloop
  endfacet
  facet normal -0.587785 -1.79638e-16 -0.809017
    outer loop
      vertex -68.382 30.5 14.1756
      vertex -68.382 29.5 14.1756
      vertex -69.382 30.5 14.9021
    endloop
  endfacet
  facet normal -0.587785 -1.79638e-16 -0.809017
    outer loop
      vertex -69.382 30.5 14.9021
      vertex -68.382 29.5 14.1756
      vertex -69.382 29.5 14.9021
    endloop
  endfacet
  facet normal 0 -2.22045e-16 -1
    outer loop
      vertex -69.382 30.5 14.9021
      vertex -69.382 29.5 14.9021
      vertex -70.618 30.5 14.9021
    endloop
  endfacet
  facet normal 0 -2.22045e-16 -1
    outer loop
      vertex -70.618 30.5 14.9021
      vertex -69.382 29.5 14.9021
      vertex -70.618 29.5 14.9021
    endloop
  endfacet
  facet normal 0.587785 -1.79638e-16 -0.809017
    outer loop
      vertex -70.618 30.5 14.9021
      vertex -70.618 29.5 14.9021
      vertex -71.618 30.5 14.1756
    endloop
  endfacet
  facet normal 0.587785 -1.79638e-16 -0.809017
    outer loop
      vertex -71.618 30.5 14.1756
      vertex -70.618 29.5 14.9021
      vertex -71.618 29.5 14.1756
    endloop
  endfacet
  facet normal 0.951057 -6.86155e-17 -0.309017
    outer loop
      vertex -72 30.5 13
      vertex -71.618 30.5 14.1756
      vertex -71.618 29.5 14.1756
    endloop
  endfacet
  facet normal 0.951057 -6.86155e-17 -0.309017
    outer loop
      vertex -72 29.5 13
      vertex -72 30.5 13
      vertex -71.618 29.5 14.1756
    endloop
  endfacet
  facet normal 0.951057 6.86155e-17 0.309017
    outer loop
      vertex 68.382 29.5 11.8244
      vertex 68.382 30.5 11.8244
      vertex 68 30.5 13
    endloop
  endfacet
  facet normal 0.951057 6.86155e-17 0.309017
    outer loop
      vertex 68 29.5 13
      vertex 68.382 29.5 11.8244
      vertex 68 30.5 13
    endloop
  endfacet
  facet normal 0.587785 1.79638e-16 0.809017
    outer loop
      vertex 69.382 29.5 11.0979
      vertex 69.382 30.5 11.0979
      vertex 68.382 30.5 11.8244
    endloop
  endfacet
  facet normal 0.587785 1.79638e-16 0.809017
    outer loop
      vertex 68.382 29.5 11.8244
      vertex 69.382 29.5 11.0979
      vertex 68.382 30.5 11.8244
    endloop
  endfacet
  facet normal 0 2.22045e-16 1
    outer loop
      vertex 70.618 29.5 11.0979
      vertex 70.618 30.5 11.0979
      vertex 69.382 30.5 11.0979
    endloop
  endfacet
  facet normal 0 2.22045e-16 1
    outer loop
      vertex 69.382 29.5 11.0979
      vertex 70.618 29.5 11.0979
      vertex 69.382 30.5 11.0979
    endloop
  endfacet
  facet normal -0.587785 1.79638e-16 0.809017
    outer loop
      vertex 71.618 29.5 11.8244
      vertex 71.618 30.5 11.8244
      vertex 70.618 30.5 11.0979
    endloop
  endfacet
  facet normal -0.587785 1.79638e-16 0.809017
    outer loop
      vertex 70.618 29.5 11.0979
      vertex 71.618 29.5 11.8244
      vertex 70.618 30.5 11.0979
    endloop
  endfacet
  facet normal -0.951057 6.86155e-17 0.309017
    outer loop
      vertex 72 30.5 13
      vertex 71.618 30.5 11.8244
      vertex 72 29.5 13
    endloop
  endfacet
  facet normal -0.951057 6.86155e-17 0.309017
    outer loop
      vertex 72 29.5 13
      vertex 71.618 30.5 11.8244
      vertex 71.618 29.5 11.8244
    endloop
  endfacet
  facet normal -0.951057 -6.86155e-17 -0.309017
    outer loop
      vertex 72 30.5 13
      vertex 72 29.5 13
      vertex 71.618 30.5 14.1756
    endloop
  endfacet
  facet normal -0.951057 -6.86155e-17 -0.309017
    outer loop
      vertex 71.618 30.5 14.1756
      vertex 72 29.5 13
      vertex 71.618 29.5 14.1756
    endloop
  endfacet
  facet normal -0.587785 -1.79638e-16 -0.809017
    outer loop
      vertex 71.618 30.5 14.1756
      vertex 71.618 29.5 14.1756
      vertex 70.618 30.5 14.9021
    endloop
  endfacet
  facet normal -0.587785 -1.79638e-16 -0.809017
    outer loop
      vertex 70.618 30.5 14.9021
      vertex 71.618 29.5 14.1756
      vertex 70.618 29.5 14.9021
    endloop
  endfacet
  facet normal 0 -2.22045e-16 -1
    outer loop
      vertex 70.618 30.5 14.9021
      vertex 70.618 29.5 14.9021
      vertex 69.382 30.5 14.9021
    endloop
  endfacet
  facet normal 0 -2.22045e-16 -1
    outer loop
      vertex 69.382 30.5 14.9021
      vertex 70.618 29.5 14.9021
      vertex 69.382 29.5 14.9021
    endloop
  endfacet
  facet normal 0.587785 -1.79638e-16 -0.809017
    outer loop
      vertex 69.382 30.5 14.9021
      vertex 69.382 29.5 14.9021
      vertex 68.382 30.5 14.1756
    endloop
  endfacet
  facet normal 0.587785 -1.79638e-16 -0.809017
    outer loop
      vertex 68.382 30.5 14.1756
      vertex 69.382 29.5 14.9021
      vertex 68.382 29.5 14.1756
    endloop
  endfacet
  facet normal 0.951057 -6.86155e-17 -0.309017
    outer loop
      vertex 68 30.5 13
      vertex 68.382 30.5 14.1756
      vertex 68.382 29.5 14.1756
    endloop
  endfacet
  facet normal 0.951057 -6.86155e-17 -0.309017
    outer loop
      vertex 68 29.5 13
      vertex 68 30.5 13
      vertex 68.382 29.5 14.1756
    endloop
  endfacet
  facet normal 0 -1 0
    outer loop
      vertex -60 -30 0.5
      vertex -60 -30 -0.5
      vertex 60 -30 -0.5
    endloop
  endfacet
  facet normal 0 -1 0
    outer loop
      vertex 60 -30 0.5
      vertex -60 -30 0.5
      vertex 60 -30 -0.5
    endloop
  endfacet
  facet normal 0.951057 0.309017 0
    outer loop
      vertex -52.5 -9 0.5
      vertex -52.118 -10.1756 0.5
      vertex -52.118 -10.1756 -0.5
    endloop
  endfacet
  facet normal 0.951057 0.309017 0
    outer loop
      vertex -52.5 -9 -0.5
      vertex -52.5 -9 0.5
      vertex -52.118 -10.1756 -0.5
    endloop
  endfacet
  facet normal 0.951057 -0.309017 0
    outer loop
      vertex -52.118 -7.82443 -0.5
      vertex -52.118 -7.82443 0.5
      vertex -52.5 -9 0.5
    endloop
  endfacet
  facet normal 0.951057 -0.309017 0
    outer loop
      vertex -52.5 -9 -0.5
      vertex -52.118 -7.82443 -0.5
      vertex -52.5 -9 0.5
    endloop
  endfacet
  facet normal 0.587785 -0.809017 0
    outer loop
      vertex -51.118 -7.09789 -0.5
      vertex -51.118 -7.09789 0.5
      vertex -52.118 -7.82443 0.5
    endloop
  endfacet
  facet normal 0.587785 -0.809017 0
    outer loop
      vertex -52.118 -7.82443 -0.5
      vertex -51.118 -7.09789 -0.5
      vertex -52.118 -7.82443 0.5
    endloop
  endfacet
  facet normal 0 -1 0
    outer loop
      vertex -49.882 -7.09789 -0.5
      vertex -49.882 -7.09789 0.5
      vertex -51.118 -7.09789 0.5
    endloop
  endfacet
  facet normal 0 -1 0
    outer loop
      vertex -51.118 -7.09789 -0.5
      vertex -49.882 -7.09789 -0.5
      vertex -51.118 -7.09789 0.5
    endloop
  endfacet
  facet normal -0.587785 -0.809017 0
    outer loop
      vertex -48.882 -7.82443 -0.5
      vertex -48.882 -7.82443 0.5
      vertex -49.882 -7.09789 0.5
    endloop
  endfacet
  facet normal -0.587785 -0.809017 0
    outer loop
      vertex -49.882 -7.09789 -0.5
      vertex -48.882 -7.82443 -0.5
      vertex -49.882 -7.09789 0.5
    endloop
  endfacet
  facet normal -0.951057 -0.309017 0
    outer loop
      vertex -48.5 -9 0.5
      vertex -48.882 -7.82443 0.5
      vertex -48.5 -9 -0.5
    endloop
  endfacet
  facet normal -0.951057 -0.309017 0
    outer loop
      vertex -48.5 -9 -0.5
      vertex -48.882 -7.82443 0.5
      vertex -48.882 -7.82443 -0.5
    endloop
  endfacet
  facet normal -0.951057 0.309017 0
    outer loop
      vertex -48.5 -9 0.5
      vertex -48.5 -9 -0.5
      vertex -48.882 -10.1756 0.5
    endloop
  endfacet
  facet normal -0.951057 0.309017 0
    outer loop
      vertex -48.882 -10.1756 0.5
      vertex -48.5 -9 -0.5
      vertex -48.882 -10.1756 -0.5
    endloop
  endfacet
  facet normal -0.587785 0.809017 0
    outer loop
      vertex -48.882 -10.1756 0.5
      vertex -48.882 -10.1756 -0.5
      vertex -49.882 -10.9021 0.5
    endloop
  endfacet
  facet normal -0.587785 0.809017 0
    outer loop
      vertex -49.882 -10.9021 0.5
      vertex -48.882 -10.1756 -0.5
      vertex -49.882 -10.9021 -0.5
    endloop
  endfacet
  facet normal 0 1 0
    outer loop
      vertex -49.882 -10.9021 0.5
      vertex -49.882 -10.9021 -0.5
      vertex -51.118 -10.9021 0.5
    endloop
  endfacet
  facet normal 0 1 0
    outer loop
      vertex -51.118 -10.9021 0.5
      vertex -49.882 -10.9021 -0.5
      vertex -51.118 -10.9021 -0.5
    endloop
  endfacet
  facet normal 0.587785 0.809017 0
    outer loop
      vertex -51.118 -10.9021 0.5
      vertex -51.118 -10.9021 -0.5
      vertex -52.118 -10.1756 0.5
    endloop
  endfacet
  facet normal 0.587785 0.809017 0
    outer loop
      vertex -52.118 -10.1756 0.5
      vertex -51.118 -10.9021 -0.5
      vertex -52.118 -10.1756 -0.5
    endloop
  endfacet
  facet normal 0.951057 -0.309017 0
    outer loop
      vertex -52.118 22.1756 -0.5
      vertex -52.118 22.1756 0.5
      vertex -52.5 21 0.5
    endloop
  endfacet
  facet normal 0.951057 -0.309017 0
    outer loop
      vertex -52.5 21 -0.5
      vertex -52.118 22.1756 -0.5
      vertex -52.5 21 0.5
    endloop
  endfacet
  facet normal 0.951057 0.309017 0
    outer loop
      vertex -52.5 21 0.5
      vertex -52.118 19.8244 0.5
      vertex -52.118 19.8244 -0.5
    endloop
  endfacet
  facet normal 0.951057 0.309017 0
    outer loop
      vertex -52.5 21 -0.5
      vertex -52.5 21 0.5
      vertex -52.118 19.8244 -0.5
    endloop
  endfacet
  facet normal 0.587785 -0.809017 0
    outer loop
      vertex -51.118 22.9021 -0.5
      vertex -51.118 22.9021 0.5
      vertex -52.118 22.1756 0.5
    endloop
  endfacet
  facet normal 0.587785 -0.809017 0
    outer loop
      vertex -52.118 22.1756 -0.5
      vertex -51.118 22.9021 -0.5
      vertex -52.118 22.1756 0.5
    endloop
  endfacet
  facet normal 0 -1 0
    outer loop
      vertex -49.882 22.9021 -0.5
      vertex -49.882 22.9021 0.5
      vertex -51.118 22.9021 0.5
    endloop
  endfacet
  facet normal 0 -1 0
    outer loop
      vertex -51.118 22.9021 -0.5
      vertex -49.882 22.9021 -0.5
      vertex -51.118 22.9021 0.5
    endloop
  endfacet
  facet normal -0.587785 -0.809017 0
    outer loop
      vertex -48.882 22.1756 -0.5
      vertex -48.882 22.1756 0.5
      vertex -49.882 22.9021 0.5
    endloop
  endfacet
  facet normal -0.587785 -0.809017 0
    outer loop
      vertex -49.882 22.9021 -0.5
      vertex -48.882 22.1756 -0.5
      vertex -49.882 22.9021 0.5
    endloop
  endfacet
  facet normal -0.951057 -0.309017 0
    outer loop
      vertex -48.5 21 0.5
      vertex -48.882 22.1756 0.5
      vertex -48.5 21 -0.5
    endloop
  endfacet
  facet normal -0.951057 -0.309017 0
    outer loop
      vertex -48.5 21 -0.5
      vertex -48.882 22.1756 0.5
      vertex -48.882 22.1756 -0.5
    endloop
  endfacet
  facet normal -0.951057 0.309017 0
    outer loop
      vertex -48.5 21 0.5
      vertex -48.5 21 -0.5
      vertex -48.882 19.8244 0.5
    endloop
  endfacet
  facet normal -0.951057 0.309017 0
    outer loop
      vertex -48.882 19.8244 0.5
      vertex -48.5 21 -0.5
      vertex -48.882 19.8244 -0.5
    endloop
  endfacet
  facet normal -0.587785 0.809017 0
    outer loop
      vertex -48.882 19.8244 0.5
      vertex -48.882 19.8244 -0.5
      vertex -49.882 19.0979 0.5
    endloop
  endfacet
  facet normal -0.587785 0.809017 0
    outer loop
      vertex -49.882 19.0979 0.5
      vertex -48.882 19.8244 -0.5
      vertex -49.882 19.0979 -0.5
    endloop
  endfacet
  facet normal 0 1 0
    outer loop
      vertex -49.882 19.0979 0.5
      vertex -49.882 19.0979 -0.5
      vertex -51.118 19.0979 0.5
    endloop
  endfacet
  facet normal 0 1 0
    outer loop
      vertex -51.118 19.0979 0.5
      vertex -49.882 19.0979 -0.5
      vertex -51.118 19.0979 -0.5
    endloop
  endfacet
  facet normal 0.587785 0.809017 0
    outer loop
      vertex -51.118 19.0979 0.5
      vertex -51.118 19.0979 -0.5
      vertex -52.118 19.8244 0.5
    endloop
  endfacet
  facet normal 0.587785 0.809017 0
    outer loop
      vertex -52.118 19.8244 0.5
      vertex -51.118 19.0979 -0.5
      vertex -52.118 19.8244 -0.5
    endloop
  endfacet
  facet normal 1 0 0
    outer loop
      vertex -40 -0.5 -0.5
      vertex -40 -0.5 0.5
      vertex -40 -25 0.5
    endloop
  endfacet
  facet normal 1 0 0
    outer loop
      vertex -40 -25 -0.5
      vertex -40 -0.5 -0.5
      vertex -40 -25 0.5
    endloop
  endfacet
  facet normal 0 -1 0
    outer loop
      vertex 40 -0.5 0.5
      vertex 60 -0.5 0.5
      vertex -60 -0.5 4.5
    endloop
  endfacet
  facet normal 0 -1 0
    outer loop
      vertex -60 -0.5 4.5
      vertex -60 -0.5 0.5
      vertex -40 -0.5 0.5
    endloop
  endfacet
  facet normal 0 -1 0
    outer loop
      vertex 40 -0.5 -0.5
      vertex -60 -0.5 4.5
      vertex -40 -0.5 0.5
    endloop
  endfacet
  facet normal 0 -1 0
    outer loop
      vertex -40 -0.5 -0.5
      vertex 40 -0.5 -0.5
      vertex -40 -0.5 0.5
    endloop
  endfacet
  facet normal 0 -1 0
    outer loop
      vertex 40 -0.5 -0.5
      vertex 40 -0.5 0.5
      vertex -60 -0.5 4.5
    endloop
  endfacet
  facet normal 0 -1 0
    outer loop
      vertex 60 -0.5 0.5
      vertex 60 -0.5 4.5
      vertex -60 -0.5 4.5
    endloop
  endfacet
  facet normal -1 0 0
    outer loop
      vertex 40 -0.5 0.5
      vertex 40 -0.5 -0.5
      vertex 40 -25 0.5
    endloop
  endfacet
  facet normal -1 0 0
    outer loop
      vertex 40 -25 0.5
      vertex 40 -0.5 -0.5
      vertex 40 -25 -0.5
    endloop
  endfacet
  facet normal 0 1 0
    outer loop
      vertex 40 -25 0.5
      vertex 40 -25 -0.5
      vertex -40 -25 0.5
    endloop
  endfacet
  facet normal 0 1 0
    outer loop
      vertex -40 -25 0.5
      vertex 40 -25 -0.5
      vertex -40 -25 -0.5
    endloop
  endfacet
  facet normal 1 0 0
    outer loop
      vertex -40 25 -0.5
      vertex -40 25 0.5
      vertex -40 0.5 0.5
    endloop
  endfacet
  facet normal 1 0 0
    outer loop
      vertex -40 0.5 -0.5
      vertex -40 25 -0.5
      vertex -40 0.5 0.5
    endloop
  endfacet
  facet normal 0 -1 0
    outer loop
      vertex 40 25 -0.5
      vertex 40 25 0.5
      vertex -40 25 0.5
    endloop
  endfacet
  facet normal 0 -1 0
    outer loop
      vertex -40 25 -0.5
      vertex 40 25 -0.5
      vertex -40 25 0.5
    endloop
  endfacet
  facet normal -1 0 0
    outer loop
      vertex 40 25 0.5
      vertex 40 25 -0.5
      vertex 40 0.5 0.5
    endloop
  endfacet
  facet normal -1 0 0
    outer loop
      vertex 40 0.5 0.5
      vertex 40 25 -0.5
      vertex 40 0.5 -0.5
    endloop
  endfacet
  facet normal 0 1 0
    outer loop
      vertex -60 0.5 0.5
      vertex -60 0.5 4.5
      vertex -40 0.5 0.5
    endloop
  endfacet
  facet normal 0 1 0
    outer loop
      vertex -40 0.5 0.5
      vertex -60 0.5 4.5
      vertex 60 0.5 4.5
    endloop
  endfacet
  facet normal 0 1 0
    outer loop
      vertex 40 0.5 0.5
      vertex 60 0.5 4.5
      vertex 60 0.5 0.5
    endloop
  endfacet
  facet normal 0 1 0
    outer loop
      vertex -40 0.5 0.5
      vertex 60 0.5 4.5
      vertex 40 0.5 0.5
    endloop
  endfacet
  facet normal 0 1 0
    outer loop
      vertex 40 0.5 0.5
      vertex 40 0.5 -0.5
      vertex -40 0.5 0.5
    endloop
  endfacet
  facet normal 0 1 0
    outer loop
      vertex -40 0.5 0.5
      vertex 40 0.5 -0.5
      vertex -40 0.5 -0.5
    endloop
  endfacet
  facet normal 0.951057 0.309017 0
    outer loop
      vertex 48.5 -9 0.5
      vertex 48.882 -10.1756 0.5
      vertex 48.882 -10.1756 -0.5
    endloop
  endfacet
  facet normal 0.951057 0.309017 0
    outer loop
      vertex 48.5 -9 -0.5
      vertex 48.5 -9 0.5
      vertex 48.882 -10.1756 -0.5
    endloop
  endfacet
  facet normal 0.951057 -0.309017 0
    outer loop
      vertex 48.882 -7.82443 -0.5
      vertex 48.882 -7.82443 0.5
      vertex 48.5 -9 0.5
    endloop
  endfacet
  facet normal 0.951057 -0.309017 0
    outer loop
      vertex 48.5 -9 -0.5
      vertex 48.882 -7.82443 -0.5
      vertex 48.5 -9 0.5
    endloop
  endfacet
  facet normal 0.587785 -0.809017 0
    outer loop
      vertex 49.882 -7.09789 -0.5
      vertex 49.882 -7.09789 0.5
      vertex 48.882 -7.82443 0.5
    endloop
  endfacet
  facet normal 0.587785 -0.809017 0
    outer loop
      vertex 48.882 -7.82443 -0.5
      vertex 49.882 -7.09789 -0.5
      vertex 48.882 -7.82443 0.5
    endloop
  endfacet
  facet normal 0 -1 0
    outer loop
      vertex 51.118 -7.09789 -0.5
      vertex 51.118 -7.09789 0.5
      vertex 49.882 -7.09789 0.5
    endloop
  endfacet
  facet normal 0 -1 0
    outer loop
      vertex 49.882 -7.09789 -0.5
      vertex 51.118 -7.09789 -0.5
      vertex 49.882 -7.09789 0.5
    endloop
  endfacet
  facet normal -0.587785 -0.809017 0
    outer loop
      vertex 52.118 -7.82443 -0.5
      vertex 52.118 -7.82443 0.5
      vertex 51.118 -7.09789 0.5
    endloop
  endfacet
  facet normal -0.587785 -0.809017 0
    outer loop
      vertex 51.118 -7.09789 -0.5
      vertex 52.118 -7.82443 -0.5
      vertex 51.118 -7.09789 0.5
    endloop
  endfacet
  facet normal -0.951057 -0.309017 0
    outer loop
      vertex 52.5 -9 0.5
      vertex 52.118 -7.82443 0.5
      vertex 52.5 -9 -0.5
    endloop
  endfacet
  facet normal -0.951057 -0.309017 0
    outer loop
      vertex 52.5 -9 -0.5
      vertex 52.118 -7.82443 0.5
      vertex 52.118 -7.82443 -0.5
    endloop
  endfacet
  facet normal -0.951057 0.309017 0
    outer loop
      vertex 52.5 -9 0.5
      vertex 52.5 -9 -0.5
      vertex 52.118 -10.1756 0.5
    endloop
  endfacet
  facet normal -0.951057 0.309017 0
    outer loop
      vertex 52.118 -10.1756 0.5
      vertex 52.5 -9 -0.5
      vertex 52.118 -10.1756 -0.5
    endloop
  endfacet
  facet normal -0.587785 0.809017 0
    outer loop
      vertex 52.118 -10.1756 0.5
      vertex 52.118 -10.1756 -0.5
      vertex 51.118 -10.9021 0.5
    endloop
  endfacet
  facet normal -0.587785 0.809017 0
    outer loop
      vertex 51.118 -10.9021 0.5
      vertex 52.118 -10.1756 -0.5
      vertex 51.118 -10.9021 -0.5
    endloop
  endfacet
  facet normal 0 1 0
    outer loop
      vertex 51.118 -10.9021 0.5
      vertex 51.118 -10.9021 -0.5
      vertex 49.882 -10.9021 0.5
    endloop
  endfacet
  facet normal 0 1 0
    outer loop
      vertex 49.882 -10.9021 0.5
      vertex 51.118 -10.9021 -0.5
      vertex 49.882 -10.9021 -0.5
    endloop
  endfacet
  facet normal 0.587785 0.809017 0
    outer loop
      vertex 49.882 -10.9021 0.5
      vertex 49.882 -10.9021 -0.5
      vertex 48.882 -10.1756 0.5
    endloop
  endfacet
  facet normal 0.587785 0.809017 0
    outer loop
      vertex 48.882 -10.1756 0.5
      vertex 49.882 -10.9021 -0.5
      vertex 48.882 -10.1756 -0.5
    endloop
  endfacet
  facet normal 0.951057 0.309017 0
    outer loop
      vertex 48.5 21 0.5
      vertex 48.882 19.8244 0.5
      vertex 48.882 19.8244 -0.5
    endloop
  endfacet
  facet normal 0.951057 0.309017 0
    outer loop
      vertex 48.5 21 -0.5
      vertex 48.5 21 0.5
      vertex 48.882 19.8244 -0.5
    endloop
  endfacet
  facet normal 0.951057 -0.309017 0
    outer loop
      vertex 48.882 22.1756 -0.5
      vertex 48.882 22.1756 0.5
      vertex 48.5 21 0.5
    endloop
  endfacet
  facet normal 0.951057 -0.309017 0
    outer loop
      vertex 48.5 21 -0.5
      vertex 48.882 22.1756 -0.5
      vertex 48.5 21 0.5
    endloop
  endfacet
  facet normal 0.587785 -0.809017 0
    outer loop
      vertex 49.882 22.9021 -0.5
      vertex 49.882 22.9021 0.5
      vertex 48.882 22.1756 0.5
    endloop
  endfacet
  facet normal 0.587785 -0.809017 0
    outer loop
      vertex 48.882 22.1756 -0.5
      vertex 49.882 22.9021 -0.5
      vertex 48.882 22.1756 0.5
    endloop
  endfacet
  facet normal 0 -1 0
    outer loop
      vertex 51.118 22.9021 -0.5
      vertex 51.118 22.9021 0.5
      vertex 49.882 22.9021 0.5
    endloop
  endfacet
  facet normal 0 -1 0
    outer loop
      vertex 49.882 22.9021 -0.5
      vertex 51.118 22.9021 -0.5
      vertex 49.882 22.9021 0.5
    endloop
  endfacet
  facet normal -0.587785 -0.809017 0
    outer loop
      vertex 52.118 22.1756 -0.5
      vertex 52.118 22.1756 0.5
      vertex 51.118 22.9021 0.5
    endloop
  endfacet
  facet normal -0.587785 -0.809017 0
    outer loop
      vertex 51.118 22.9021 -0.5
      vertex 52.118 22.1756 -0.5
      vertex 51.118 22.9021 0.5
    endloop
  endfacet
  facet normal -0.951057 -0.309017 0
    outer loop
      vertex 52.5 21 0.5
      vertex 52.118 22.1756 0.5
      vertex 52.5 21 -0.5
    endloop
  endfacet
  facet normal -0.951057 -0.309017 0
    outer loop
      vertex 52.5 21 -0.5
      vertex 52.118 22.1756 0.5
      vertex 52.118 22.1756 -0.5
    endloop
  endfacet
  facet normal -0.951057 0.309017 0
    outer loop
      vertex 52.5 21 0.5
      vertex 52.5 21 -0.5
      vertex 52.118 19.8244 0.5
    endloop
  endfacet
  facet normal -0.951057 0.309017 0
    outer loop
      vertex 52.118 19.8244 0.5
      vertex 52.5 21 -0.5
      vertex 52.118 19.8244 -0.5
    endloop
  endfacet
  facet normal -0.587785 0.809017 0
    outer loop
      vertex 52.118 19.8244 0.5
      vertex 52.118 19.8244 -0.5
      vertex 51.118 19.0979 0.5
    endloop
  endfacet
  facet normal -0.587785 0.809017 0
    outer loop
      vertex 51.118 19.0979 0.5
      vertex 52.118 19.8244 -0.5
      vertex 51.118 19.0979 -0.5
    endloop
  endfacet
  facet normal 0 1 0
    outer loop
      vertex 51.118 19.0979 0.5
      vertex 51.118 19.0979 -0.5
      vertex 49.882 19.0979 0.5
    endloop
  endfacet
  facet normal 0 1 0
    outer loop
      vertex 49.882 19.0979 0.5
      vertex 51.118 19.0979 -0.5
      vertex 49.882 19.0979 -0.5
    endloop
  endfacet
  facet normal 0.587785 0.809017 0
    outer loop
      vertex 49.882 19.0979 0.5
      vertex 49.882 19.0979 -0.5
      vertex 48.882 19.8244 0.5
    endloop
  endfacet
  facet normal 0.587785 0.809017 0
    outer loop
      vertex 48.882 19.8244 0.5
      vertex 49.882 19.0979 -0.5
      vertex 48.882 19.8244 -0.5
    endloop
  endfacet
  facet normal 0 0 1
    outer loop
      vertex -40 -25 0.5
      vertex -60 -30 0.5
      vertex 60 -30 0.5
    endloop
  endfacet
  facet normal 0 0 1
    outer loop
      vertex 48.882 -10.1756 0.5
      vertex 40 -0.5 0.5
      vertex 60 -30 0.5
    endloop
  endfacet
  facet normal 0 0 1
    outer loop
      vertex 40 -0.5 0.5
      vertex 40 -25 0.5
      vertex 60 -30 0.5
    endloop
  endfacet
  facet normal 0 0 1
    outer loop
      vertex -49.882 -10.9021 0.5
      vertex -51.118 -10.9021 0.5
      vertex -40 -25 0.5
    endloop
  endfacet
  facet normal 0 0 1
    outer loop
      vertex -52.118 -10.1756 0.5
      vertex -60 -30 0.5
      vertex -40 -25 0.5
    endloop
  endfacet
  facet normal 0 0 1
    outer loop
      vertex -60 -0.5 0.5
      vertex -60 -30 0.5
      vertex -52.118 -10.1756 0.5
    endloop
  endfacet
  facet normal 0 0 1
    outer loop
      vertex -48.882 -7.82443 0.5
      vertex -40 -0.5 0.5
      vertex -49.882 -7.09789 0.5
    endloop
  endfacet
  facet normal 0 0 1
    outer loop
      vertex -60 -0.5 0.5
      vertex -52.5 -9 0.5
      vertex -52.118 -7.82443 0.5
    endloop
  endfacet
  facet normal 0 0 1
    outer loop
      vertex -60 -0.5 0.5
      vertex -52.118 -7.82443 0.5
      vertex -51.118 -7.09789 0.5
    endloop
  endfacet
  facet normal 0 0 1
    outer loop
      vertex -60 -0.5 0.5
      vertex -51.118 -7.09789 0.5
      vertex -49.882 -7.09789 0.5
    endloop
  endfacet
  facet normal 0 0 1
    outer loop
      vertex -40 -25 0.5
      vertex -40 -0.5 0.5
      vertex -48.882 -7.82443 0.5
    endloop
  endfacet
  facet normal 0 0 1
    outer loop
      vertex -49.882 -7.09789 0.5
      vertex -40 -0.5 0.5
      vertex -60 -0.5 0.5
    endloop
  endfacet
  facet normal 0 0 1
    outer loop
      vertex -49.882 -10.9021 0.5
      vertex -40 -25 0.5
      vertex -48.882 -10.1756 0.5
    endloop
  endfacet
  facet normal 0 0 1
    outer loop
      vertex -52.118 -10.1756 0.5
      vertex -52.5 -9 0.5
      vertex -60 -0.5 0.5
    endloop
  endfacet
  facet normal 0 0 1
    outer loop
      vertex 49.882 -10.9021 0.5
      vertex 48.882 -10.1756 0.5
      vertex 60 -30 0.5
    endloop
  endfacet
  facet normal 0 0 1
    outer loop
      vertex 48.5 -9 0.5
      vertex 40 -0.5 0.5
      vertex 48.882 -10.1756 0.5
    endloop
  endfacet
  facet normal 0 0 1
    outer loop
      vertex 48.882 -7.82443 0.5
      vertex 40 -0.5 0.5
      vertex 48.5 -9 0.5
    endloop
  endfacet
  facet normal 0 0 1
    outer loop
      vertex 51.118 -7.09789 0.5
      vertex 52.118 -7.82443 0.5
      vertex 60 -0.5 0.5
    endloop
  endfacet
  facet normal 0 0 1
    outer loop
      vertex 49.882 -7.09789 0.5
      vertex 40 -0.5 0.5
      vertex 48.882 -7.82443 0.5
    endloop
  endfacet
  facet normal 0 0 1
    outer loop
      vertex 60 -0.5 0.5
      vertex 40 -0.5 0.5
      vertex 49.882 -7.09789 0.5
    endloop
  endfacet
  facet normal 0 0 1
    outer loop
      vertex 60 -0.5 0.5
      vertex 52.118 -7.82443 0.5
      vertex 60 -30 0.5
    endloop
  endfacet
  facet normal 0 0 1
    outer loop
      vertex 52.118 -7.82443 0.5
      vertex 52.5 -9 0.5
      vertex 60 -30 0.5
    endloop
  endfacet
  facet normal 0 0 1
    outer loop
      vertex 52.5 -9 0.5
      vertex 52.118 -10.1756 0.5
      vertex 60 -30 0.5
    endloop
  endfacet
  facet normal 0 0 1
    outer loop
      vertex 52.118 -10.1756 0.5
      vertex 51.118 -10.9021 0.5
      vertex 60 -30 0.5
    endloop
  endfacet
  facet normal 0 0 1
    outer loop
      vertex 51.118 -10.9021 0.5
      vertex 49.882 -10.9021 0.5
      vertex 60 -30 0.5
    endloop
  endfacet
  facet normal 0 0 1
    outer loop
      vertex -40 -25 0.5
      vertex -48.5 -9 0.5
      vertex -48.882 -10.1756 0.5
    endloop
  endfacet
  facet normal 0 0 1
    outer loop
      vertex -40 -25 0.5
      vertex -48.882 -7.82443 0.5
      vertex -48.5 -9 0.5
    endloop
  endfacet
  facet normal 0 0 1
    outer loop
      vertex -51.118 -10.9021 0.5
      vertex -52.118 -10.1756 0.5
      vertex -40 -25 0.5
    endloop
  endfacet
  facet normal 0 0 1
    outer loop
      vertex 49.882 -7.09789 0.5
      vertex 51.118 -7.09789 0.5
      vertex 60 -0.5 0.5
    endloop
  endfacet
  facet normal 0 0 1
    outer loop
      vertex 40 -25 0.5
      vertex -40 -25 0.5
      vertex 60 -30 0.5
    endloop
  endfacet
  facet normal 0 0 1
    outer loop
      vertex -60 0.5 4.5
      vertex -60 -0.5 4.5
      vertex 60 -0.5 4.5
    endloop
  endfacet
  facet normal 0 0 1
    outer loop
      vertex 60 0.5 4.5
      vertex -60 0.5 4.5
      vertex 60 -0.5 4.5
    endloop
  endfacet
endsolid OpenSCAD_Model
